<?xml version="1.0" encoding="UTF-8" standalone="no"?>
<!DOCTYPE svg PUBLIC "-//W3C//DTD SVG 1.1//EN" "http://www.w3.org/Graphics/SVG/1.1/DTD/svg11.dtd">
<svg width="100%" height="100%" viewBox="0 0 600 600" version="1.1" xmlns="http://www.w3.org/2000/svg" xmlns:xlink="http://www.w3.org/1999/xlink" xml:space="preserve" xmlns:serif="http://www.serif.com/" style="fill-rule:evenodd;clip-rule:evenodd;stroke-linecap:round;stroke-linejoin:round;stroke-miterlimit:1.5;">
    <g id="Background">
        <rect x="-19.49" y="-18.097" width="643.155" height="639.258" style="fill:rgb(185,245,250);"/>
    </g>
    <g transform="matrix(1.07508,0,0,1.34888,-8.77108,-240.747)">
        <g id="Ground">
            <path d="M601.392,473.596C601.392,520.904 629.723,579.812 611.137,616.984C603.982,631.294 562.982,634.411 545.708,637.865C539.438,639.119 534.871,644.751 529.002,646.218C517.761,649.028 505.865,652.538 495.592,655.963C478.652,661.609 456.342,656.2 438.515,658.747C370.285,668.494 292.128,654.394 224.13,650.394C205.259,649.284 126.125,654.849 108.585,649.002C86.874,641.765 61.546,641.627 38.979,637.865C21.615,634.971 -18.086,643.101 -27.842,628.121C-33.862,618.877 -31.46,595.818 -27.842,584.965C-23.445,571.772 -20.302,502.251 -15.313,497.262C-14.57,496.519 -14.676,469.537 -12.529,465.244L-13.921,462.459C-8.506,462.459 14.19,454.375 19.49,459.675C28.485,468.671 60.862,469.021 75.174,466.636C83.284,465.284 139.917,460.028 144.78,462.459C155.568,467.854 169.784,466.636 183.759,466.636C209.329,466.636 224.227,456.872 249.733,455.769C254.91,455.546 269.739,456.027 270.203,456.027C285.681,456.027 287.119,461.646 302.088,466.636C314.172,470.664 328.919,468.819 342.459,472.204C380.017,481.594 430.485,448.967 456.613,455.499C476.612,460.499 504.895,474.207 527.61,466.636C539.282,462.745 555.915,454.261 567.981,458.283C580.686,462.518 577.536,473.596 601.392,473.596Z" style="fill:rgb(140,85,0);stroke:rgb(173,130,28);stroke-width:3.58px;"/>
        </g>
    </g>
    <g id="Carrots">
        <path d="M90.044,581.998C90.044,581.998 133.478,443.9 122.341,428.309C111.204,412.717 88.93,407.149 75.566,419.399C62.201,431.65 76.679,562.859 90.044,581.998Z" style="fill:rgb(245,135,0);stroke:rgb(255,179,0);stroke-width:2.08px;"/>
        <g transform="matrix(1,0,0,1,144.78,0)">
            <path d="M90.044,605.747C90.044,605.747 143.501,443.9 132.364,428.309C121.227,412.717 77.793,409.376 64.429,421.626C51.065,433.877 76.679,586.608 90.044,605.747Z" style="fill:rgb(245,135,0);stroke:rgb(255,179,0);stroke-width:2.08px;"/>
        </g>
        <g transform="matrix(1,0,0,1,-111.369,-25.6148)">
            <path d="M113.431,576.791C113.431,576.791 143.501,443.9 132.364,428.309C121.227,412.717 92.271,411.603 78.907,423.854C65.542,436.104 100.067,557.652 113.431,576.791Z" style="fill:rgb(245,135,0);stroke:rgb(255,179,0);stroke-width:2.08px;"/>
        </g>
        <g transform="matrix(1,0,0,1,298.469,-11.1369)">
            <path d="M124.568,561.951C124.568,561.951 108.976,472.856 122.341,428.309C127.846,409.956 87.578,405.82 75.566,419.399C49.951,448.355 100.067,559.518 124.568,561.951Z" style="fill:rgb(245,135,0);stroke:rgb(255,179,0);stroke-width:2.08px;"/>
        </g>
        <g transform="matrix(1,0,0,1,452.158,0)">
            <path d="M72.225,596.476C72.225,596.476 152.41,447.241 141.273,431.65C130.136,416.058 88.93,407.149 75.566,419.399C62.201,431.65 58.86,577.337 72.225,596.476Z" style="fill:rgb(245,135,0);stroke:rgb(255,179,0);stroke-width:2.08px;"/>
        </g>
        <path d="M71.464,449.936C71.464,449.936 80.952,453.95 90.44,452.491" style="fill:none;stroke:rgb(255,179,0);stroke-width:2.08px;"/>
        <path d="M120.285,467.921C120.285,467.921 106.743,472.91 101.04,467.921" style="fill:none;stroke:rgb(255,179,0);stroke-width:2.08px;"/>
        <path d="M71.105,479.325C71.105,479.325 80.37,487.165 88.211,484.314" style="fill:none;stroke:rgb(255,179,0);stroke-width:2.08px;"/>
        <path d="M108.168,516.388C108.168,516.388 101.04,515.676 99.615,513.537" style="fill:none;stroke:rgb(255,179,0);stroke-width:2.08px;"/>
        <path d="M205.816,443.687C205.816,443.687 232.901,455.091 243.593,452.24" style="fill:none;stroke:rgb(255,179,0);stroke-width:2.08px;"/>
        <path d="M272.816,475.761C272.816,475.761 259.986,479.325 251.433,475.761" style="fill:none;stroke:rgb(255,179,0);stroke-width:2.08px;"/>
        <path d="M206.529,474.335C206.529,474.335 229.337,482.176 230.763,480.038" style="fill:none;stroke:rgb(255,179,0);stroke-width:2.08px;"/>
        <path d="M249.295,559.154C249.295,559.154 238.603,558.441 237.178,556.303" style="fill:none;stroke:rgb(255,179,0);stroke-width:2.08px;"/>
        <path d="M419.426,423.168C419.426,423.168 408.022,426.589 394.907,420.887" style="fill:none;stroke:rgb(255,179,0);stroke-width:2.08px;"/>
        <path d="M416.575,439.704C416.575,439.704 404.601,439.134 401.75,437.423" style="fill:none;stroke:rgb(255,179,0);stroke-width:2.08px;"/>
        <path d="M373.81,472.206C373.81,472.206 383.503,474.487 387.495,470.495" style="fill:none;stroke:rgb(255,179,0);stroke-width:2.08px;"/>
        <path d="M416.575,488.742C416.575,488.742 412.584,491.023 407.452,489.312" style="fill:none;stroke:rgb(255,179,0);stroke-width:2.08px;"/>
        <path d="M417.716,495.014L412.014,495.014" style="fill:none;stroke:rgb(255,179,0);stroke-width:2.08px;"/>
        <path d="M523.204,434.572C523.204,434.572 536.319,445.406 547.153,449.398" style="fill:none;stroke:rgb(255,179,0);stroke-width:2.08px;"/>
        <path d="M518.072,459.661C518.072,459.661 528.336,468.215 531.187,467.074" style="fill:none;stroke:rgb(255,179,0);stroke-width:2.08px;"/>
        <path d="M569.961,501.857C569.961,501.857 553.996,500.716 547.153,492.734" style="fill:none;stroke:rgb(255,179,0);stroke-width:2.08px;"/>
        <path d="M593.34,443.125C593.34,443.125 576.234,443.125 570.532,438.564" style="fill:none;stroke:rgb(255,179,0);stroke-width:2.08px;"/>
        <path d="M516.932,545.763C516.932,545.763 523.775,549.184 526.055,548.044" style="fill:none;stroke:rgb(255,179,0);stroke-width:2.08px;"/>
        <path d="M21.971,430.698C21.971,430.698 6.462,431.611 2.356,429.33" style="fill:none;stroke:rgb(255,179,0);stroke-width:2.08px;"/>
        <path d="M11.936,501.404C11.936,501.404 2.812,502.317 0.988,500.036" style="fill:none;stroke:rgb(255,179,0);stroke-width:2.08px;"/>
        <path d="M10.111,510.528L1.9,509.159" style="fill:none;stroke:rgb(255,179,0);stroke-width:2.08px;"/>
        <path d="M266.138,503.058C266.138,503.058 257.014,502.488 252.453,499.637" style="fill:none;stroke:rgb(255,179,0);stroke-width:2.08px;"/>
        <path d="M224.071,574.331C224.071,574.331 227.721,575.791 231.735,573.966" style="fill:none;stroke:rgb(255,179,0);stroke-width:2.08px;"/>
        <path d="M97.619,555.321C97.619,555.321 89.956,553.861 89.956,552.037" style="fill:none;stroke:rgb(255,179,0);stroke-width:2.08px;"/>
    </g>
    <g id="Cat">
        <path d="M375.335,-3.338C375.335,-3.338 386.539,121.914 449.117,130.304C499.536,137.064 513.273,93.802 518.723,62.091C522.268,41.461 532.644,17.543 549.349,27.288C566.054,37.033 548.213,111.891 534.842,135.605C526.105,151.101 482.862,194.577 421.275,162.323C362.843,131.721 304.338,3.622 326.611,-18.652C348.885,-40.925 375.335,-3.338 375.335,-3.338Z" style="fill:rgb(198,151,0);stroke:rgb(100,76,0);stroke-width:4.36px;"/>
        <path d="M238.853,224.912L163.122,209.599C148.914,127.434 129.982,43.615 164.514,-21.491L377.507,-38.197C420.054,78.099 414.327,159.1 397.097,225.146L326.333,236.506C342.98,256.086 316.906,101.868 272.598,-35.023C249.781,34.414 247.364,138.786 238.853,224.912Z" style="fill:rgb(198,151,0);stroke:rgb(100,76,0);stroke-width:4.36px;"/>
        <g transform="matrix(1,0,0,1,0,4.17633)">
            <path d="M76.237,375.993L218.232,380.169L239.113,210.332L158.371,193.626L150.018,284.114C150.018,284.114 20.552,285.506 76.237,375.993Z" style="fill:rgb(130,54,126);stroke:rgb(96,9,99);stroke-width:4.36px;"/>
        </g>
        <g transform="matrix(-1,0,0,1,559.094,16.7053)">
            <path d="M75.096,372.572L218.232,380.169L239.113,210.332L158.371,193.626L134.705,285.506C134.705,285.506 31.386,276.382 75.096,372.572Z" style="fill:rgb(130,54,126);stroke:rgb(96,9,99);stroke-width:4.36px;"/>
        </g>
        <path d="M77.387,378.274L216.944,382.036" style="fill:none;stroke:rgb(21,18,6);stroke-width:8.33px;"/>
        <path d="M77.387,378.274L216.944,382.036" style="fill:none;stroke:rgb(21,18,6);stroke-width:8.33px;"/>
        <g transform="matrix(1,0,0,1,261.717,14.4779)">
            <path d="M80.599,380.317L221.324,372.986" style="fill:none;stroke:rgb(21,18,6);stroke-width:8.33px;"/>
        </g>
        <g transform="matrix(1,0,0,1,1.45973,-13.8674)">
            <path d="M148.708,37.554C148.708,37.554 193.891,66.902 202.558,65.078C211.225,63.253 154.265,73.588 146.054,62.64" style="fill:rgb(100,76,0);"/>
        </g>
        <g transform="matrix(1,0,0,1,5.19664,12.6588)">
            <path d="M143.199,86.735C143.199,86.735 174.894,105.574 178.398,104.114C181.901,102.654 148.608,110.679 144.812,110.387C144.27,107.417 143.199,86.735 143.199,86.735Z" style="fill:rgb(100,76,0);"/>
        </g>
        <path d="M249.473,76.674C249.473,76.674 226.004,84.497 220.872,83.356C215.74,82.216 246.622,94.92 247.763,91.499C248.903,88.078 249.473,76.674 249.473,76.674Z" style="fill:rgb(100,76,0);"/>
        <path d="M397.157,31.057C397.157,31.057 372.398,51.789 357.813,56.716C346.752,60.453 398.298,64.699 402.289,61.278C403.291,55.615 397.157,31.057 397.157,31.057Z" style="fill:rgb(100,76,0);"/>
        <g transform="matrix(1,0,0,1,4.43758,0.467114)">
            <path d="M303.496,80.39C303.496,80.39 319.176,86.805 329.155,83.954C339.134,81.103 314.187,103.198 309.198,101.773C304.208,100.347 303.496,80.39 303.496,80.39Z" style="fill:rgb(100,76,0);"/>
        </g>
        <g transform="matrix(1,0,0,1,2.56912,-0.467113)">
            <path d="M405.42,110.326C405.42,110.326 395.442,125.294 373.346,125.294C351.251,125.294 401.857,138.123 405.42,137.411C408.984,136.698 405.42,110.326 405.42,110.326Z" style="fill:rgb(100,76,0);"/>
        </g>
        <g transform="matrix(1,0,0,1,0.57399,3.34827)">
            <path d="M479.81,125.963C479.81,125.963 484.004,142.448 500.93,145.251C510.072,146.765 491.768,134.926 492.294,118.629C488.17,122.387 479.81,125.963 479.81,125.963Z" style="fill:rgb(100,76,0);"/>
        </g>
        <g transform="matrix(1,0,0,1,4.01793,2.67862)">
            <path d="M511.044,83.687C511.044,83.687 522.313,103.198 530.153,101.06C537.994,98.922 508.504,107.943 504.227,100.102C508.816,92.409 511.044,83.687 511.044,83.687Z" style="fill:rgb(100,76,0);"/>
        </g>
        <g transform="matrix(1,0,0,1,2.48729,0.478325)">
            <path d="M522.313,46.177C522.313,46.177 531.579,54.73 537.281,51.879C542.983,49.028 521.973,61.571 519.122,58.72C518.28,55.199 522.313,46.177 522.313,46.177Z" style="fill:rgb(100,76,0);"/>
        </g>
        <path d="M438.92,126.719C438.92,126.719 426.803,148.102 438.92,155.942C451.037,163.783 444.622,135.272 453.888,129.57C463.154,123.868 438.92,126.719 438.92,126.719Z" style="fill:none;"/>
        <g transform="matrix(1,0,0,1,0,4.78325)">
            <path d="M447.856,127.666C447.856,127.666 437.797,135.507 438.174,149.341C438.48,160.588 423.335,129.987 426.186,118.582C432.194,123.92 447.856,127.666 447.856,127.666Z" style="fill:rgb(100,76,0);"/>
        </g>
        <path d="M552.285,69.448C552.285,69.448 542.069,71.784 541.193,70.324C540.317,68.864 546.013,79.96 550.392,80.252C551.735,76.234 552.285,69.448 552.285,69.448Z" style="fill:rgb(100,76,0);"/>
        <path d="M474.306,171.243C474.306,171.243 466.747,167.25 466.747,161.119C466.747,154.988 462.795,169.736 464.546,171.702C466.549,172.101 474.306,171.243 474.306,171.243Z" style="fill:rgb(100,76,0);"/>
    </g>
    <g id="Carrot-tops" serif:id="Carrot tops">
        <path d="M92.417,408.217L74.32,262.045L85.456,253.692L92.417,408.217Z" style="fill:rgb(87,140,0);stroke:rgb(56,99,9);stroke-width:4.36px;"/>
        <path d="M92.417,404.04L97.985,270.398L109.122,270.398L92.417,404.04Z" style="fill:rgb(87,140,0);stroke:rgb(56,99,9);stroke-width:4.36px;"/>
        <path d="M95.252,410.005L100.384,294.823L112.359,293.683L95.252,410.005Z" style="fill:rgb(87,140,0);stroke:rgb(56,99,9);stroke-width:4.36px;"/>
        <path d="M96.963,409.435L132.886,320.483L124.333,314.781L96.963,409.435Z" style="fill:rgb(87,140,0);stroke:rgb(56,99,9);stroke-width:4.36px;"/>
        <path d="M94.112,408.295L77.006,330.746L70.734,331.887L94.112,408.295Z" style="fill:rgb(87,140,0);stroke:rgb(56,99,9);stroke-width:4.36px;"/>
        <path d="M238.557,411.352L207.373,286.619L225.192,276.596L238.557,411.352Z" style="fill:rgb(87,140,0);stroke:rgb(56,99,9);stroke-width:4.36px;"/>
        <path d="M239.67,410.239L254.148,220.912L236.329,219.798L239.67,410.239Z" style="fill:rgb(87,140,0);stroke:rgb(56,99,9);stroke-width:4.36px;"/>
        <path d="M238.557,410.239L258.603,295.529L273.081,298.87L238.557,410.239Z" style="fill:rgb(87,140,0);stroke:rgb(56,99,9);stroke-width:4.36px;"/>
        <path d="M237.443,408.011L259.717,253.209L276.422,255.436L237.443,408.011Z" style="fill:rgb(87,140,0);stroke:rgb(56,99,9);stroke-width:4.36px;"/>
        <path d="M239.67,409.125L275.308,348.986L265.285,340.076L239.67,409.125Z" style="fill:rgb(87,140,0);stroke:rgb(56,99,9);stroke-width:4.36px;"/>
        <path d="M396.7,395.761L376.654,271.028L392.246,268.8L396.7,395.761Z" style="fill:rgb(87,140,0);stroke:rgb(56,99,9);stroke-width:4.36px;"/>
        <path d="M397.814,395.761L408.951,288.847L426.77,288.847L397.814,395.761Z" style="fill:rgb(87,140,0);stroke:rgb(56,99,9);stroke-width:4.36px;"/>
        <path d="M396.7,399.102L388.905,316.689L372.199,317.803L396.7,399.102Z" style="fill:rgb(87,140,0);stroke:rgb(56,99,9);stroke-width:4.36px;"/>
        <path d="M396.7,396.874L423.429,347.872L436.793,354.554L396.7,396.874Z" style="fill:rgb(87,140,0);stroke:rgb(56,99,9);stroke-width:4.36px;"/>
        <path d="M394.473,397.988L376.654,352.327L366.631,354.554L394.473,397.988Z" style="fill:rgb(87,140,0);stroke:rgb(56,99,9);stroke-width:4.36px;"/>
        <path d="M562.64,413.301L543.707,228.429L560.413,225.088L562.64,413.301Z" style="fill:rgb(87,140,0);stroke:rgb(56,99,9);stroke-width:4.36px;"/>
        <path d="M561.526,413.301L540.366,289.682L524.774,291.909L561.526,413.301Z" style="fill:rgb(87,140,0);stroke:rgb(56,99,9);stroke-width:4.36px;"/>
        <path d="M563.754,414.415L568.208,314.183L581.573,316.41L563.754,414.415Z" style="fill:rgb(87,140,0);stroke:rgb(56,99,9);stroke-width:4.36px;"/>
        <path d="M560.413,414.415L544.821,344.253L531.457,346.48L560.413,414.415Z" style="fill:rgb(87,140,0);stroke:rgb(56,99,9);stroke-width:4.36px;"/>
        <path d="M0.227,388.8L15.819,311.956L2.455,304.16L0.227,388.8Z" style="fill:rgb(87,140,0);stroke:rgb(56,99,9);stroke-width:4.36px;"/>
        <path d="M0.227,387.687L9.137,236.225L-19.819,231.77L0.227,387.687Z" style="fill:rgb(87,140,0);stroke:rgb(56,99,9);stroke-width:4.36px;"/>
    </g>
</svg>
