<?xml version="1.0" encoding="UTF-8" standalone="no"?>
<!DOCTYPE svg PUBLIC "-//W3C//DTD SVG 1.1//EN" "http://www.w3.org/Graphics/SVG/1.1/DTD/svg11.dtd">
<svg width="100%" height="100%" viewBox="0 0 600 600" version="1.1" xmlns="http://www.w3.org/2000/svg" xmlns:xlink="http://www.w3.org/1999/xlink" xml:space="preserve" xmlns:serif="http://www.serif.com/" style="fill-rule:evenodd;clip-rule:evenodd;stroke-linecap:round;stroke-linejoin:round;stroke-miterlimit:1.5;">
    <g transform="matrix(1.00097,0,0,1.00167,-0.916452,3.52488)">
        <g id="Board">
            <rect x="-6.493" y="-9.466" width="611.136" height="612.528" style="fill:rgb(141,118,68);"/>
        </g>
    </g>
    <g id="woodTexture" transform="matrix(1.03913,0,0,0.465235,10.8407,-10.4384)">
        <path d="M-12.929,68.096C5.246,68.096 20.652,75.16 37.535,78.537C64.128,83.855 119.835,81.953 147.164,78.537C165.617,76.23 182.901,68.218 201.108,64.616C249.552,55.033 292.047,48.562 342.059,57.655C354.008,59.828 365.544,58.349 376.862,62.876C386.973,66.92 396.607,74.407 407.166,78.63C440.285,91.878 477.053,98.925 510.853,111.6C527.456,117.826 543.508,125.035 561.316,127.261C571.65,128.552 625.702,122.821 625.702,116.82" style="fill:none;stroke:rgb(121,81,40);stroke-opacity:0.26;stroke-width:2.59px;"/>
        <path d="M-18.149,155.103C31.773,155.103 82.776,143.211 133.243,151.623C166.995,157.248 194.816,173.887 227.21,184.685C256.487,194.444 290.568,193.326 321.178,195.126C359.974,197.408 381.443,189.377 416.885,184.685C432.824,182.575 449.564,183.948 465.609,182.945C509.054,180.23 557.585,172.504 597.859,172.504" style="fill:none;stroke:rgb(121,81,40);stroke-opacity:0.26;stroke-width:2.59px;"/>
        <path d="M77.558,106.379C104.343,106.379 161.35,120.212 187.187,111.6C216.408,101.859 277.961,83.829 312.477,92.458C330.572,96.982 342.555,104.969 357.72,115.08C379.52,129.613 407.875,130.741 434.287,130.741" style="fill:none;stroke:rgb(121,81,40);stroke-opacity:0.26;stroke-width:2.59px;"/>
        <path d="M262.013,125.521C246.336,125.521 242.186,147.106 256.793,156.843C270.084,165.704 289.157,163.804 305.516,163.804C307.704,163.804 319.69,165.291 321.178,163.804C343.668,141.313 272.287,118.727 262.013,129.001" style="fill:none;stroke:rgb(121,81,40);stroke-opacity:0.26;stroke-width:2.59px;"/>
        <g transform="matrix(1,0,0,1,283.01,254.343)">
            <path d="M262.013,125.521C246.336,125.521 242.186,147.106 256.793,156.843C270.084,165.704 289.157,163.804 305.516,163.804C307.704,163.804 319.69,165.291 321.178,163.804C343.668,141.313 272.287,118.727 262.013,129.001" style="fill:none;stroke:rgb(121,81,40);stroke-opacity:0.26;stroke-width:2.59px;"/>
        </g>
        <path d="M-21.629,221.228C-5.371,198.001 42.397,207.397 70.598,200.347C138.331,183.413 199.816,216.555 260.273,231.669C266.278,233.17 273.409,230.168 279.414,231.669C306.18,238.36 329.323,240.37 357.72,240.37" style="fill:none;stroke:rgb(121,81,40);stroke-opacity:0.26;stroke-width:2.59px;"/>
        <path d="M589.159,247.33C564.534,247.33 502.979,249.983 489.971,262.991C484.118,268.845 408.928,268.212 396.003,268.212C380.655,268.212 363.817,270.171 349.02,266.472C335.548,263.104 271.48,267.238 265.493,261.251C251.008,246.766 111.993,222.282 82.779,236.889C60.12,248.219 4.748,257.771 -21.629,257.771C-27.449,257.771 -54.692,259.487 -54.692,264.732" style="fill:none;stroke:rgb(121,81,40);stroke-opacity:0.26;stroke-width:2.59px;"/>
        <path d="M143.684,275.172C167.371,275.172 201.225,263.61 225.47,271.692C279.153,289.586 338.636,295.021 396.003,306.495C410.001,309.294 508.427,312.524 521.293,308.235C530.653,305.115 540.029,303.015 549.136,303.015" style="fill:none;stroke:rgb(121,81,40);stroke-opacity:0.26;stroke-width:2.59px;"/>
        <path d="M378.602,343.038C361.618,326.054 319.198,320.336 293.335,311.715C288.106,309.972 281.302,313.057 275.934,311.715C246.482,304.352 215.325,308.744 185.447,301.274C177.935,299.397 168.407,303.715 161.085,301.274C139.467,294.068 112.653,287.861 89.739,282.133C77.309,279.025 39.797,278.392 28.835,283.873C22.573,287.004 9.354,292.574 2.733,292.574" style="fill:none;stroke:rgb(121,81,40);stroke-opacity:0.26;stroke-width:2.59px;"/>
        <path d="M286.375,8.931C324.82,8.931 358.514,24.356 394.263,33.293C408.673,36.896 426.28,35.265 441.247,40.254C498.257,59.257 560.218,66.356 622.221,66.356" style="fill:none;stroke:rgb(121,81,40);stroke-opacity:0.26;stroke-width:2.59px;"/>
        <path d="M-5.968,38.514C-3.024,46.692 51.073,47.342 61.897,43.734C80.288,37.604 138.727,48.823 155.865,40.254C171.087,32.643 186.738,29.168 202.848,21.112C213.384,15.845 225.826,-3.249 241.131,-3.249" style="fill:none;stroke:rgb(121,81,40);stroke-opacity:0.26;stroke-width:2.59px;"/>
        <path d="M180.227,353.479C206.568,353.479 237.533,337.198 265.493,346.518C305.489,359.85 352.801,356.719 396.003,363.919C407.199,365.785 421.828,360.346 432.546,363.919C442.14,367.117 459.047,367.668 469.089,365.66C477.458,363.986 531.644,357.049 535.214,353.479C542.958,345.735 589.984,327.376 601.34,327.376" style="fill:none;stroke:rgb(121,81,40);stroke-opacity:0.26;stroke-width:2.59px;"/>
        <path d="M115.841,336.077C101.944,336.077 74.078,329.991 74.078,346.518C74.078,349.038 72.975,354.753 74.078,356.959C77.078,362.959 123.105,369.858 131.503,365.66C135.21,363.806 138.463,356.77 138.463,353.479C138.463,325.272 116.573,334.337 94.96,334.337" style="fill:none;stroke:rgb(121,81,40);stroke-opacity:0.26;stroke-width:2.59px;"/>
        <g transform="matrix(0.81931,0,0,0.889986,309.703,253.569)">
            <path d="M115.841,336.077C101.944,336.077 74.078,329.991 74.078,346.518C74.078,349.038 72.975,354.753 74.078,356.959C77.078,362.959 123.105,369.858 131.503,365.66C135.21,363.806 138.463,356.77 138.463,353.479C138.463,325.272 116.573,334.337 94.96,334.337" style="fill:none;stroke:rgb(121,81,40);stroke-opacity:0.26;stroke-width:3.11px;"/>
        </g>
        <g transform="matrix(-0.829063,0.0161368,-0.00600243,-1.53848,638.689,1747.42)">
            <path d="M115.841,336.077C101.944,336.077 74.078,329.991 74.078,346.518C74.078,349.038 72.975,354.753 74.078,356.959C77.078,362.959 123.105,369.858 131.503,365.66C135.21,363.806 138.463,356.77 138.463,353.479C138.463,325.272 116.573,334.337 94.96,334.337" style="fill:none;stroke:rgb(121,81,40);stroke-opacity:0.26;stroke-width:2.63px;"/>
        </g>
        <path d="M-9.448,351.738C19.392,366.159 128.033,396.544 161.085,388.281C182.625,382.896 229.784,377.84 251.572,377.84C275.8,377.84 296.511,391.762 317.697,391.762" style="fill:none;stroke:rgb(121,81,40);stroke-opacity:0.26;stroke-width:2.59px;"/>
        <g transform="matrix(1.15998,0,0,-1,-120.196,792.469)">
            <path d="M-12.929,68.096C5.246,68.096 20.652,75.16 37.535,78.537C64.128,83.855 119.835,81.953 147.164,78.537C165.617,76.23 182.901,68.218 201.108,64.616C249.552,55.033 292.047,48.562 342.059,57.655C354.008,59.828 365.544,58.349 376.862,62.876C386.973,66.92 396.607,74.407 407.166,78.63C440.285,91.878 477.053,98.925 510.853,111.6C527.456,117.826 543.508,125.035 561.316,127.261C571.65,128.552 625.702,122.821 625.702,116.82" style="fill:none;stroke:rgb(121,81,40);stroke-opacity:0.26;stroke-width:2.28px;"/>
        </g>
        <g transform="matrix(1.15998,0,0,-1,-120.196,792.469)">
            <path d="M-18.149,155.103C31.773,155.103 82.776,143.211 133.243,151.623C166.995,157.248 194.816,173.887 227.21,184.685C256.487,194.444 290.568,193.326 321.178,195.126C359.974,197.408 381.443,189.377 416.885,184.685C432.824,182.575 449.564,183.948 465.609,182.945C509.054,180.23 557.585,172.504 597.859,172.504" style="fill:none;stroke:rgb(121,81,40);stroke-opacity:0.26;stroke-width:2.28px;"/>
        </g>
        <g transform="matrix(1.15998,0,0,-1,-120.196,792.469)">
            <path d="M77.558,106.379C104.343,106.379 161.35,120.212 187.187,111.6C216.408,101.859 277.961,83.829 312.477,92.458C330.572,96.982 342.555,104.969 357.72,115.08C379.52,129.613 407.875,130.741 434.287,130.741" style="fill:none;stroke:rgb(121,81,40);stroke-opacity:0.26;stroke-width:2.28px;"/>
        </g>
        <g transform="matrix(1.15998,0,0,-1,-120.196,792.469)">
            <path d="M262.013,125.521C246.336,125.521 242.186,147.106 256.793,156.843C270.084,165.704 289.157,163.804 305.516,163.804C307.704,163.804 319.69,165.291 321.178,163.804C343.668,141.313 272.287,118.727 262.013,129.001" style="fill:none;stroke:rgb(121,81,40);stroke-opacity:0.26;stroke-width:2.28px;"/>
        </g>
        <g transform="matrix(1.15998,0,0,-1,-120.196,792.469)">
            <path d="M-21.629,221.228C-5.371,198.001 42.397,207.397 70.598,200.347C138.331,183.413 199.816,216.555 260.273,231.669C266.278,233.17 273.409,230.168 279.414,231.669C306.18,238.36 329.323,240.37 357.72,240.37" style="fill:none;stroke:rgb(121,81,40);stroke-opacity:0.26;stroke-width:2.28px;"/>
        </g>
        <g transform="matrix(1.15998,0,0,-1,-120.196,792.469)">
            <path d="M589.159,247.33C564.534,247.33 502.979,249.983 489.971,262.991C484.118,268.845 408.928,268.212 396.003,268.212C380.655,268.212 363.817,270.171 349.02,266.472C335.548,263.104 271.48,267.238 265.493,261.251C251.008,246.766 111.993,222.282 82.779,236.889C60.12,248.219 4.748,257.771 -21.629,257.771C-27.449,257.771 -54.692,259.487 -54.692,264.732" style="fill:none;stroke:rgb(121,81,40);stroke-opacity:0.26;stroke-width:2.28px;"/>
        </g>
        <g transform="matrix(1.15998,0,0,-1,-120.196,792.469)">
            <path d="M143.684,275.172C167.371,275.172 201.225,263.61 225.47,271.692C279.153,289.586 338.636,295.021 396.003,306.495C410.001,309.294 508.427,312.524 521.293,308.235C530.653,305.115 540.029,303.015 549.136,303.015" style="fill:none;stroke:rgb(121,81,40);stroke-opacity:0.26;stroke-width:2.28px;"/>
        </g>
        <g transform="matrix(1.15998,0,0,-1,-120.196,792.469)">
            <path d="M378.602,343.038C361.618,326.054 319.198,320.336 293.335,311.715C288.106,309.972 281.302,313.057 275.934,311.715C246.482,304.352 215.325,308.744 185.447,301.274C177.935,299.397 168.407,303.715 161.085,301.274C139.467,294.068 112.653,287.861 89.739,282.133C77.309,279.025 39.797,278.392 28.835,283.873C22.573,287.004 9.354,292.574 2.733,292.574" style="fill:none;stroke:rgb(121,81,40);stroke-opacity:0.26;stroke-width:2.28px;"/>
        </g>
        <g transform="matrix(1.15998,0,0,-1,-120.196,792.469)">
            <path d="M286.375,8.931C324.82,8.931 358.514,24.356 394.263,33.293C408.673,36.896 426.28,35.265 441.247,40.254C498.257,59.257 560.218,66.356 622.221,66.356" style="fill:none;stroke:rgb(121,81,40);stroke-opacity:0.26;stroke-width:2.28px;"/>
        </g>
        <g transform="matrix(1.15998,0,0,-1,-120.196,792.469)">
            <path d="M-5.968,38.514C-3.024,46.692 51.073,47.342 61.897,43.734C80.288,37.604 138.727,48.823 155.865,40.254C171.087,32.643 186.738,29.168 202.848,21.112C213.384,15.845 225.826,-3.249 241.131,-3.249" style="fill:none;stroke:rgb(121,81,40);stroke-opacity:0.26;stroke-width:2.28px;"/>
        </g>
        <g transform="matrix(1.15998,0,0,-1,-120.196,792.469)">
            <path d="M180.227,353.479C206.568,353.479 237.533,337.198 265.493,346.518C305.489,359.85 352.801,356.719 396.003,363.919C407.199,365.785 421.828,360.346 432.546,363.919C442.14,367.117 459.047,367.668 469.089,365.66C477.458,363.986 531.644,357.049 535.214,353.479C542.958,345.735 589.984,327.376 601.34,327.376" style="fill:none;stroke:rgb(121,81,40);stroke-opacity:0.26;stroke-width:2.28px;"/>
        </g>
        <g transform="matrix(1.15998,0,0,-1,-120.196,792.469)">
            <path d="M115.841,336.077C101.944,336.077 74.078,329.991 74.078,346.518C74.078,349.038 72.975,354.753 74.078,356.959C77.078,362.959 123.105,369.858 131.503,365.66C135.21,363.806 138.463,356.77 138.463,353.479C138.463,325.272 116.573,334.337 94.96,334.337" style="fill:none;stroke:rgb(121,81,40);stroke-opacity:0.26;stroke-width:2.28px;"/>
        </g>
        <g transform="matrix(1.15998,0,0,-1,-120.196,792.469)">
            <path d="M-9.448,351.738C19.392,366.159 128.033,396.544 161.085,388.281C182.625,382.896 229.784,377.84 251.572,377.84C275.8,377.84 296.511,391.762 317.697,391.762" style="fill:none;stroke:rgb(121,81,40);stroke-opacity:0.26;stroke-width:2.28px;"/>
        </g>
        <g transform="matrix(1.20428,0,0,1,-0.549658,792.952)">
            <path d="M-12.929,68.096C5.246,68.096 20.652,75.16 37.535,78.537C64.128,83.855 119.835,81.953 147.164,78.537C165.617,76.23 182.901,68.218 201.108,64.616C249.552,55.033 292.047,48.562 342.059,57.655C354.008,59.828 365.544,58.349 376.862,62.876C386.973,66.92 396.607,74.407 407.166,78.63C440.285,91.878 477.053,98.925 510.853,111.6C527.456,117.826 543.508,125.035 561.316,127.261C571.65,128.552 625.702,122.821 625.702,116.82" style="fill:none;stroke:rgb(121,81,40);stroke-opacity:0.26;stroke-width:2.21px;"/>
        </g>
        <g transform="matrix(1.20428,0,0,1,-0.549658,792.952)">
            <path d="M-18.149,155.103C31.773,155.103 82.776,143.211 133.243,151.623C166.995,157.248 194.816,173.887 227.21,184.685C256.487,194.444 290.568,193.326 321.178,195.126C359.974,197.408 381.443,189.377 416.885,184.685C432.824,182.575 449.564,183.948 465.609,182.945C509.054,180.23 557.585,172.504 597.859,172.504" style="fill:none;stroke:rgb(121,81,40);stroke-opacity:0.26;stroke-width:2.21px;"/>
        </g>
        <g transform="matrix(1.20428,0,0,1,-0.549658,792.952)">
            <path d="M77.558,106.379C104.343,106.379 161.35,120.212 187.187,111.6C216.408,101.859 277.961,83.829 312.477,92.458C330.572,96.982 342.555,104.969 357.72,115.08C379.52,129.613 407.875,130.741 434.287,130.741" style="fill:none;stroke:rgb(121,81,40);stroke-opacity:0.26;stroke-width:2.21px;"/>
        </g>
        <g transform="matrix(1.20428,0,0,1,-0.549658,792.952)">
            <path d="M262.013,125.521C246.336,125.521 242.186,147.106 256.793,156.843C270.084,165.704 289.157,163.804 305.516,163.804C307.704,163.804 319.69,165.291 321.178,163.804C343.668,141.313 272.287,118.727 262.013,129.001" style="fill:none;stroke:rgb(121,81,40);stroke-opacity:0.26;stroke-width:2.21px;"/>
        </g>
        <g transform="matrix(1.20428,0,0,1,-0.549658,792.952)">
            <path d="M-21.629,221.228C-5.371,198.001 42.397,207.397 70.598,200.347C138.331,183.413 199.816,216.555 260.273,231.669C266.278,233.17 273.409,230.168 279.414,231.669C306.18,238.36 329.323,240.37 357.72,240.37" style="fill:none;stroke:rgb(121,81,40);stroke-opacity:0.26;stroke-width:2.21px;"/>
        </g>
        <g transform="matrix(1.20428,0,0,1,-0.549658,792.952)">
            <path d="M589.159,247.33C564.534,247.33 502.979,249.983 489.971,262.991C484.118,268.845 408.928,268.212 396.003,268.212C380.655,268.212 363.817,270.171 349.02,266.472C335.548,263.104 271.48,267.238 265.493,261.251C251.008,246.766 111.993,222.282 82.779,236.889C60.12,248.219 4.748,257.771 -21.629,257.771C-27.449,257.771 -54.692,259.487 -54.692,264.732" style="fill:none;stroke:rgb(121,81,40);stroke-opacity:0.26;stroke-width:2.21px;"/>
        </g>
        <g transform="matrix(1.20428,0,0,1,-0.549658,792.952)">
            <path d="M143.684,275.172C167.371,275.172 201.225,263.61 225.47,271.692C279.153,289.586 338.636,295.021 396.003,306.495C410.001,309.294 508.427,312.524 521.293,308.235C530.653,305.115 540.029,303.015 549.136,303.015" style="fill:none;stroke:rgb(121,81,40);stroke-opacity:0.26;stroke-width:2.21px;"/>
        </g>
        <g transform="matrix(1.20428,0,0,1,-0.549658,792.952)">
            <path d="M378.602,343.038C361.618,326.054 319.198,320.336 293.335,311.715C288.106,309.972 281.302,313.057 275.934,311.715C246.482,304.352 215.325,308.744 185.447,301.274C177.935,299.397 168.407,303.715 161.085,301.274C139.467,294.068 112.653,287.861 89.739,282.133C77.309,279.025 39.797,278.392 28.835,283.873C22.573,287.004 9.354,292.574 2.733,292.574" style="fill:none;stroke:rgb(121,81,40);stroke-opacity:0.26;stroke-width:2.21px;"/>
        </g>
        <g transform="matrix(1.20428,0,0,1,-0.549658,792.952)">
            <path d="M286.375,8.931C324.82,8.931 358.514,24.356 394.263,33.293C408.673,36.896 426.28,35.265 441.247,40.254C498.257,59.257 560.218,66.356 622.221,66.356" style="fill:none;stroke:rgb(121,81,40);stroke-opacity:0.26;stroke-width:2.21px;"/>
        </g>
        <g transform="matrix(1.20428,0,0,1,-0.549658,792.952)">
            <path d="M-5.968,38.514C-3.024,46.692 51.073,47.342 61.897,43.734C80.288,37.604 138.727,48.823 155.865,40.254C171.087,32.643 186.738,29.168 202.848,21.112C213.384,15.845 225.826,-3.249 241.131,-3.249" style="fill:none;stroke:rgb(121,81,40);stroke-opacity:0.26;stroke-width:2.21px;"/>
        </g>
        <g transform="matrix(1.20428,0,0,1,-0.549658,792.952)">
            <path d="M180.227,353.479C206.568,353.479 237.533,337.198 265.493,346.518C305.489,359.85 352.801,356.719 396.003,363.919C407.199,365.785 421.828,360.346 432.546,363.919C442.14,367.117 459.047,367.668 469.089,365.66C477.458,363.986 531.644,357.049 535.214,353.479C542.958,345.735 589.984,327.376 601.34,327.376" style="fill:none;stroke:rgb(121,81,40);stroke-opacity:0.26;stroke-width:2.21px;"/>
        </g>
        <g transform="matrix(1.20428,0,0,1,-0.549658,792.952)">
            <path d="M115.841,336.077C101.944,336.077 74.078,329.991 74.078,346.518C74.078,349.038 72.975,354.753 74.078,356.959C77.078,362.959 123.105,369.858 131.503,365.66C135.21,363.806 138.463,356.77 138.463,353.479C138.463,325.272 116.573,334.337 94.96,334.337" style="fill:none;stroke:rgb(121,81,40);stroke-opacity:0.26;stroke-width:2.21px;"/>
        </g>
        <g transform="matrix(1.20428,0,0,1,-0.549658,792.952)">
            <path d="M-9.448,351.738C19.392,366.159 128.033,396.544 161.085,388.281C182.625,382.896 229.784,377.84 251.572,377.84C275.8,377.84 296.511,391.762 317.697,391.762" style="fill:none;stroke:rgb(121,81,40);stroke-opacity:0.26;stroke-width:2.21px;"/>
        </g>
        <g transform="matrix(1.11322,3.09685e-17,-6.20764e-18,-1,-109.356,1587.27)">
            <path d="M143.684,275.172C167.371,275.172 201.225,263.61 225.47,271.692C279.153,289.586 338.636,295.021 396.003,306.495C410.001,309.294 508.427,312.524 521.293,308.235C530.653,305.115 540.029,303.015 549.136,303.015" style="fill:none;stroke:rgb(121,81,40);stroke-opacity:0.26;stroke-width:2.36px;"/>
        </g>
        <g transform="matrix(1.11322,3.09685e-17,-6.20764e-18,-1,-109.356,1587.27)">
            <path d="M378.602,343.038C361.618,326.054 319.198,320.336 293.335,311.715C288.106,309.972 281.302,313.057 275.934,311.715C246.482,304.352 215.325,308.744 185.447,301.274C177.935,299.397 168.407,303.715 161.085,301.274C139.467,294.068 112.653,287.861 89.739,282.133C77.309,279.025 39.797,278.392 28.835,283.873C22.573,287.004 9.354,292.574 2.733,292.574" style="fill:none;stroke:rgb(121,81,40);stroke-opacity:0.26;stroke-width:2.36px;"/>
        </g>
        <g transform="matrix(1.11322,3.09685e-17,-6.20764e-18,-1,-109.356,1587.27)">
            <path d="M180.227,353.479C206.568,353.479 237.533,337.198 265.493,346.518C305.489,359.85 352.801,356.719 396.003,363.919C407.199,365.785 421.828,360.346 432.546,363.919C442.14,367.117 459.047,367.668 469.089,365.66C477.458,363.986 531.644,357.049 535.214,353.479C542.958,345.735 589.984,327.376 601.34,327.376" style="fill:none;stroke:rgb(121,81,40);stroke-opacity:0.26;stroke-width:2.36px;"/>
        </g>
        <g transform="matrix(1.11322,3.09685e-17,-6.20764e-18,-1,-109.356,1587.27)">
            <path d="M115.841,336.077C101.944,336.077 74.078,329.991 74.078,346.518C74.078,349.038 72.975,354.753 74.078,356.959C77.078,362.959 123.105,369.858 131.503,365.66C135.21,363.806 138.463,356.77 138.463,353.479C138.463,325.272 116.573,334.337 94.96,334.337" style="fill:none;stroke:rgb(121,81,40);stroke-opacity:0.26;stroke-width:2.36px;"/>
        </g>
        <g transform="matrix(1.11322,3.09685e-17,-6.20764e-18,-1,-109.356,1587.27)">
            <path d="M-9.448,351.738C19.392,366.159 128.033,396.544 161.085,388.281C182.625,382.896 229.784,377.84 251.572,377.84C275.8,377.84 296.511,391.762 317.697,391.762" style="fill:none;stroke:rgb(121,81,40);stroke-opacity:0.26;stroke-width:2.36px;"/>
        </g>
        <g transform="matrix(-0.999384,-0.0784141,0.0157181,-0.999384,827.073,948.231)">
            <path d="M262.013,125.521C246.336,125.521 242.186,147.106 256.793,156.843C270.084,165.704 289.157,163.804 305.516,163.804C307.704,163.804 319.69,165.291 321.178,163.804C343.668,141.313 272.287,118.727 262.013,129.001" style="fill:none;stroke:rgb(121,81,40);stroke-opacity:0.26;stroke-width:2.59px;"/>
        </g>
    </g>
</svg>
